<?xml version="1.0" standalone="no"?>
<!DOCTYPE svg PUBLIC "-//W3C//DTD SVG 20010904//EN"
 "http://www.w3.org/TR/2001/REC-SVG-20010904/DTD/svg10.dtd">
<svg version="1.0" xmlns="http://www.w3.org/2000/svg"
 width="636.000000pt" height="358.000000pt" viewBox="0 0 636.000000 358.000000"
 preserveAspectRatio="xMidYMid meet">
<metadata>
Created by potrace 1.16, written by Peter Selinger 2001-2019
</metadata>
<g transform="translate(0.000000,358.000000) scale(0.100000,-0.100000)"
fill="#000000" stroke="none">
<path d="M1530 3500 c-107 -13 -190 -38 -296 -90 -121 -59 -222 -136 -323
-249 -41 -45 -106 -106 -145 -136 -93 -70 -203 -184 -255 -265 -58 -89 -213
-398 -246 -490 -70 -196 -102 -419 -92 -640 7 -137 42 -379 77 -525 40 -170
127 -373 218 -509 160 -240 475 -473 745 -550 153 -44 200 -48 480 -43 229 4
277 8 382 30 489 102 887 258 1210 472 147 97 254 192 370 327 110 127 158
195 203 284 l31 62 163 7 c90 4 253 8 361 9 131 2 202 7 209 14 8 8 7 13 -6
18 -9 3 -171 5 -359 3 l-343 -4 24 70 c30 86 41 266 23 369 -30 172 -125 397
-237 563 l-65 96 113 -6 c62 -4 282 -10 488 -13 348 -7 376 -6 389 10 24 28
-4 38 -94 32 -44 -2 -271 0 -505 6 l-425 11 -71 76 c-93 100 -438 405 -558
495 -118 89 -465 302 -611 376 -270 136 -638 218 -855 190z m326 -55 c183 -31
408 -112 574 -205 117 -66 428 -258 500 -309 95 -66 397 -327 529 -456 l113
-111 -68 3 c-38 2 -258 12 -489 23 -588 29 -849 34 -1080 22 l-200 -10 -25 24
c-60 57 -134 32 -128 -43 4 -47 48 -84 78 -65 11 7 25 12 32 12 6 0 20 7 30
17 47 43 854 39 1523 -7 77 -5 191 -12 253 -16 l113 -7 59 -81 c102 -137 210
-378 246 -546 16 -75 18 -245 4 -310 -6 -25 -20 -71 -32 -103 l-23 -57 -469 2
-469 3 -4 82 c-10 216 -96 393 -270 553 -87 81 -197 144 -322 186 -164 55
-249 69 -416 69 -160 0 -235 -13 -235 -42 0 -13 7 -14 38 -9 151 27 346 14
529 -34 175 -46 296 -115 414 -237 143 -147 206 -287 223 -492 l6 -74 -192 6
c-106 4 -321 10 -478 13 l-284 7 -32 33 c-33 36 -68 43 -107 23 -29 -16 -37
-28 -37 -61 0 -64 114 -104 162 -56 21 21 24 21 297 14 152 -3 363 -9 469 -13
l192 -6 0 -25 c0 -40 -30 -143 -60 -207 -38 -80 -116 -183 -212 -277 -114
-113 -221 -161 -473 -209 -45 -9 -138 -14 -260 -13 -173 0 -199 3 -289 27 -54
15 -149 51 -210 80 -296 144 -494 359 -557 605 -39 154 -16 390 53 529 64 131
216 263 382 332 94 39 201 64 244 57 39 -6 62 1 62 19 0 51 -303 -14 -443 -94
-85 -49 -168 -122 -225 -196 -82 -109 -117 -222 -129 -417 -16 -272 73 -474
296 -671 293 -259 661 -362 1067 -297 259 41 386 96 520 223 133 126 224 283
260 447 l16 75 459 0 c253 0 459 -2 459 -3 0 -18 -90 -156 -153 -236 -264
-334 -601 -551 -1127 -726 -357 -119 -591 -168 -855 -177 -423 -15 -736 107
-1048 407 -94 90 -183 212 -247 340 -122 243 -194 596 -195 950 0 180 2 203
28 305 86 341 259 687 422 845 l57 55 -21 -42 c-14 -28 -17 -44 -10 -48 13 -9
10 -11 94 98 53 70 85 100 132 129 90 55 175 82 256 82 63 0 68 1 65 20 -3 19
-9 21 -80 19 -55 -1 -94 -8 -137 -26 -34 -14 -61 -21 -61 -17 0 10 124 119
185 162 55 39 137 82 199 105 117 42 352 55 512 28z"/>
<path d="M1012 2868 c3 -7 28 -17 57 -21 59 -10 73 -28 45 -58 -19 -21 -74
-54 -78 -47 -2 2 -7 25 -12 53 -6 31 -15 51 -24 53 -13 2 -15 -17 -14 -125 1
-106 4 -129 16 -131 15 -3 28 35 28 82 0 16 10 25 36 35 19 7 50 26 68 42 l33
29 6 -58 c10 -103 58 -182 74 -122 3 13 14 20 29 20 13 0 34 5 47 11 17 8 39
8 70 1 32 -6 55 -6 81 3 29 10 38 10 47 -1 17 -21 78 -28 116 -15 27 10 37 10
55 -3 28 -20 62 -20 77 -2 11 13 15 12 33 -6 18 -18 29 -20 83 -15 50 5 64 3
69 -8 15 -40 128 7 134 55 2 19 -9 37 -42 69 -43 42 -45 46 -29 63 9 10 25 18
35 18 13 0 18 6 16 17 -5 28 -32 26 -67 -2 -43 -37 -40 -65 12 -115 l42 -41
-24 -19 c-26 -22 -74 -29 -53 -8 16 16 15 53 0 66 -7 5 -39 18 -70 27 -33 9
-58 22 -58 30 0 14 58 75 72 75 4 0 8 7 8 15 0 27 -38 16 -80 -23 -30 -29 -40
-47 -40 -70 0 -35 13 -45 93 -69 51 -15 51 -15 27 -29 -34 -18 -85 -17 -104 2
-9 8 -20 13 -25 10 -5 -4 -12 7 -16 24 -9 43 -35 39 -35 -5 0 -38 -17 -46 -44
-20 -22 23 -6 57 32 67 40 11 58 41 37 62 -8 8 -15 19 -15 24 0 8 -67 22 -106
22 -22 0 -16 -28 7 -35 16 -5 19 -12 14 -28 -4 -12 -9 -37 -12 -55 -8 -52 -64
-78 -114 -52 -37 21 -12 131 34 146 21 7 22 23 3 30 -22 9 -50 -11 -71 -50
-16 -29 -22 -33 -37 -25 -25 14 -120 7 -126 -8 -2 -8 5 -13 17 -13 45 0 121
-22 121 -35 0 -29 -37 -43 -86 -32 -34 8 -54 7 -80 -2 -20 -7 -38 -11 -40 -8
-3 3 4 23 15 46 21 40 27 96 13 117 -14 21 -53 35 -82 29 -16 -3 -31 -2 -35 4
-9 16 -25 13 -25 -4 0 -12 -6 -11 -32 5 -38 23 -133 29 -126 8z"/>
<path d="M2486 2795 c-8 -8 -17 -24 -21 -34 -5 -17 -8 -16 -35 10 -15 16 -33
29 -39 29 -14 0 -14 -37 0 -45 17 -11 31 -57 24 -83 -4 -18 -11 -23 -33 -20
-20 2 -35 16 -59 53 -55 85 -58 89 -76 82 -24 -9 -25 -184 -2 -194 23 -8 28 1
29 57 1 49 2 50 16 28 31 -48 59 -68 93 -68 19 0 40 7 48 16 11 14 13 14 21 0
10 -18 63 -22 73 -6 14 23 27 9 21 -23 -6 -34 13 -75 30 -64 5 3 11 44 12 91
3 98 -5 106 -53 56 -41 -43 -59 -40 -50 7 4 20 15 54 26 75 10 20 19 40 19 43
0 11 -29 4 -44 -10z"/>
<path d="M1163 1799 c-47 -17 -66 -98 -39 -164 18 -43 41 -55 121 -60 59 -4
67 -1 64 21 0 3 7 17 16 31 10 15 21 38 25 52 l8 26 1 -26 c3 -88 34 -126 91
-114 22 5 36 17 47 39 l15 33 24 -24 c28 -28 58 -29 83 -4 16 16 20 17 25 5 7
-18 35 -18 42 -1 3 9 16 12 34 9 18 -3 41 3 56 13 23 15 27 15 43 1 24 -22 38
-20 66 10 l24 26 6 -25 c13 -51 3 -72 -36 -75 -43 -4 -93 14 -83 29 4 7 -1 10
-12 7 -11 -2 -20 -13 -22 -25 -7 -46 125 -73 177 -37 22 16 23 21 16 73 -5 31
-9 78 -9 105 -1 27 -7 51 -13 53 -6 2 -27 -23 -48 -57 -20 -33 -38 -60 -40
-60 -2 0 -2 29 2 65 7 75 -9 89 -33 28 -21 -56 -28 -65 -55 -82 -23 -14 -23
-14 4 15 30 34 35 65 11 88 -19 20 -83 21 -110 2 -13 -10 -25 -11 -35 -5 -8 5
-32 9 -55 9 -40 0 -40 0 -54 -50 l-14 -50 -12 29 c-24 58 -54 46 -34 -15 20
-61 -10 -113 -48 -82 -11 10 -13 28 -9 85 4 58 3 73 -8 73 -8 0 -18 -15 -23
-32 l-9 -33 -16 37 c-8 20 -28 43 -44 51 -31 16 -106 19 -140 6z m136 -55 c26
-33 26 -41 -1 -84 l-22 -35 -14 38 c-8 20 -19 37 -24 37 -16 0 -20 -29 -10
-60 10 -27 9 -30 -9 -30 -34 0 -69 44 -69 86 0 53 23 74 81 74 39 0 51 -4 68
-26z"/>
<path d="M2236 1743 c-29 -21 -36 -33 -36 -58 0 -38 -22 -62 -38 -43 -6 7 -18
32 -27 56 -11 27 -23 42 -35 42 -24 0 -30 -19 -30 -96 0 -57 2 -64 19 -64 11
0 23 9 26 21 6 17 9 18 22 7 9 -7 30 -13 47 -14 100 -3 95 -1 98 -41 2 -26 8
-38 18 -38 21 0 35 63 21 99 -10 25 -15 28 -41 22 -25 -5 -30 -2 -30 15 0 28
27 89 39 89 16 0 13 17 -3 23 -7 3 -30 -6 -50 -20z"/>
</g>
</svg>
